# xmcd
#
# Track frame offsets:
#	150
#	15936
#	25177
#	40509
#	56336
#	64948
#	74958
#	88309
#	103407
#	116382
#	132029
#
# Disc length: 1968 seconds
#
# Revision: 1
# Processed by: cddbd v1.5PL3 Copyright (c) Steve Scherf et al.
# Submitted via: audiograbber 1.82.01
#
DISCID=9307ae0b
DTITLE=Take it Easy - Großes Herz
DYEAR=2001
DGENRE=Country
TTITLE0=Mitten ins Herz
TTITLE1=Tanzen, tanzen, tanzen
TTITLE2=Hopp, in Boots
TTITLE3=Baby komm und steig mit ein
TTITLE4=Wenn du lächelst
TTITLE5=Daisy Duck
TTITLE6=Nashville
TTITLE7=Postmann
TTITLE8=Schön wie ein Morgen
TTITLE9=Schlaf gut
TTITLE10=Großes Herz
EXTD=
EXTT0=
EXTT1=
EXTT2=
EXTT3=
EXTT4=
EXTT5=
EXTT6=
EXTT7=
EXTT8=
EXTT9=
EXTT10=
PLAYORDER=
